<svg width="82" height="64" viewBox="0 0 82 64" fill="none" xmlns="http://www.w3.org/2000/svg">
<path d="M81.9485 40.0377C81.4378 34.6357 76.785 26.1561 73.2778 22.0019C69.459 17.4772 69.2646 14.9908 67.6293 9.44327C66.9499 7.40958 65.6988 7.76612 64.4478 6.41971C63.3724 4.95367 63.9698 1.13259 62.6204 0.166175C59.9309 -1.75492 59.2093 13.5998 56.8477 14.3363C53.8325 15.2769 42.8987 9.06796 47.9685 5.43688C54.4018 0.827652 39.3704 1.30617 36.8425 2.37813C33.9351 3.61195 34.5747 7.14686 32.506 8.42994C30.62 9.45969 27.1222 7.01082 24.2078 8.92722C19.0536 12.312 17.9595 19.159 12.379 21.819C7.44972 24.0192 0.529083 25.056 0.0277236 31.849C-0.54392 39.5803 7.91829 44.9402 7.54812 53.2039C7.20607 60.8672 17.4582 52.96 19.7658 53.3048C25.8946 54.2243 24.2265 50.1522 32.8598 47.2671C40.3005 45.5031 42.5168 48.7143 45.5648 54.4612C47.521 58.1509 52.8579 54.4002 53.7904 59.3566C54.512 63.1847 56.4003 62.8305 59.5958 63.3653C63.0421 63.9424 71.4176 65.4154 72.6359 60.1354C74.6038 51.5972 82.7029 47.9825 81.9509 40.0401L81.9485 40.0377Z" fill="#A5BB48"/>
</svg>
