<svg width="48" height="48" viewBox="0 0 48 48" fill="none" xmlns="http://www.w3.org/2000/svg">
<path fill-rule="evenodd" clip-rule="evenodd" d="M24 4C16.27 4 10 10.27 10 18C10 22.76 12.38 26.95 16 29.48V34C16 35.1 16.9 36 18 36H30C31.1 36 32 35.1 32 34V29.48C35.62 26.95 38 22.76 38 18C38 10.27 31.73 4 24 4ZM18 42C18 43.1 18.9 44 20 44H28C29.1 44 30 43.1 30 42V40H18V42ZM28 27.39L29.71 26.2C32.4 24.32 34 21.26 34 18.01C34 12.5 29.51 8.01 24 8.01C18.49 8.01 14 12.5 14 18.01C14 21.27 15.6 24.33 18.29 26.21L20 27.4V32H28V27.39Z" fill="#FFB432"/>
</svg>
