<svg width="34" height="34" viewBox="0 0 34 34" fill="none" xmlns="http://www.w3.org/2000/svg">
<path d="M32.6834 16.3002L17.6834 1.30016C17.0834 0.700163 16.25 0.333496 15.3334 0.333496H3.66671C1.83337 0.333496 0.333374 1.8335 0.333374 3.66683V15.3335C0.333374 16.2502 0.700041 17.0835 1.31671 17.7002L16.3167 32.7002C16.9167 33.3002 17.75 33.6668 18.6667 33.6668C19.5834 33.6668 20.4167 33.3002 21.0167 32.6835L32.6834 21.0168C33.3 20.4168 33.6667 19.5835 33.6667 18.6668C33.6667 17.7502 33.2834 16.9002 32.6834 16.3002ZM6.16671 8.66683C4.78337 8.66683 3.66671 7.55016 3.66671 6.16683C3.66671 4.7835 4.78337 3.66683 6.16671 3.66683C7.55004 3.66683 8.66671 4.7835 8.66671 6.16683C8.66671 7.55016 7.55004 8.66683 6.16671 8.66683Z" fill="#FFB432"/>
</svg>
