<svg width="52" height="73" viewBox="0 0 52 73" fill="none" xmlns="http://www.w3.org/2000/svg">
<path d="M25.5541 0C26.0927 0 26.6303 0.0101519 27.1666 0.0303496L27.1665 5.7076H24.6694L24.6691 0.00896636C24.9633 0.00299837 25.2584 0 25.5541 0Z" fill="#FA4616"/>
<path d="M25.9871 59.3301C17.7192 59.3301 11.0168 52.6278 11.0168 44.3597C11.0168 36.0917 17.7192 29.3894 25.9871 29.3894C34.2553 29.3894 40.9573 36.0917 40.9573 44.3597C40.9573 52.6278 34.2553 59.3301 25.9871 59.3301Z" fill="white"/>
<path d="M23.5601 72.1288H28.1423V62.8977H23.5601V72.1288Z" fill="#FFDB8D"/>
<path d="M33.1278 61.5645L37.0967 59.2734L41.7134 67.269L37.7434 69.5601L33.1278 61.5645Z" fill="#FFDB8D"/>
<path d="M40.7534 55.6188L43.0445 51.6499L51.039 56.2666L48.749 60.2343L40.7534 55.6188Z" fill="#FFDB8D"/>
<path d="M14.5921 59.2766L18.5599 61.5677L13.9444 69.5622L9.97546 67.2722L14.5921 59.2766Z" fill="#FFDB8D"/>
<path d="M8.64558 51.6511L10.9367 55.62L2.94114 60.2356L0.650024 56.2667L8.64558 51.6511Z" fill="#FFDB8D"/>
<path d="M25.9971 29.3989C34.2647 29.3989 40.9679 36.1013 40.9679 44.3692H31.0277C31.0277 41.591 28.7753 39.3389 25.9971 39.3389C23.2188 39.3389 20.9667 41.591 20.9667 44.3692H11.0267C11.0267 36.1013 17.7292 29.3989 25.9971 29.3989Z" fill="#FFC743"/>
<path d="M36.5388 33.7388L15.3666 54.911L15.4555 54.9988L36.6277 33.8277" fill="#231F20"/>
<path d="M36.6277 54.911L15.4555 33.7388L15.3666 33.8277L36.5388 54.9988" fill="#231F20"/>
<path d="M25.9971 59.3396C17.7291 59.3396 11.0267 52.6373 11.0267 44.3693C11.0267 40.2354 12.7026 36.4927 15.4114 33.7837C15.6113 33.5838 15.8168 33.3895 16.0277 33.2011C17.1113 32.201 19.087 30.4347 20.2089 29.3127C21.3179 28.2038 21.2703 27.1883 21.2703 25.7706C21.2703 24.8659 21.2094 23.6171 21.664 23.3235H30.3303C30.7845 23.6171 30.7234 24.8659 30.7234 25.7706C30.7234 27.1883 30.6764 28.2038 31.7856 29.3127C32.9077 30.4347 34.8828 32.201 35.9661 33.2011C36.1776 33.3895 36.3832 33.5838 36.5829 33.7837C39.2912 36.4927 40.9679 40.2354 40.9679 44.3693C40.9679 52.6373 34.2647 59.3396 25.9971 59.3396Z" fill="#FFC72C"/>
<path d="M21.1515 25.4713L20.0426 24.2755V11.8421C20.0426 11.8421 21.6955 11.5324 22.9112 10.2841C24.2107 8.9496 24.1012 7.22511 24.1012 4.76099H27.8932C27.8932 7.22511 27.7837 8.9496 29.0832 10.2841C30.2987 11.5324 31.9513 11.8421 31.9513 11.8421V24.2755L30.8433 25.4713H21.1515Z" fill="#3C3C3C"/>
<path d="M20.0424 24.2755H31.9512V19.2544H20.0424V24.2755Z" fill="#6E6E6E"/>
<path d="M25.9971 59.3395C17.7291 59.3395 11.0267 52.6372 11.0267 44.3691H20.9668C20.9668 47.1474 23.2188 49.3995 25.9971 49.3995C28.7753 49.3995 31.0277 47.1474 31.0277 44.3691H40.9679C40.9679 52.6372 34.2647 59.3395 25.9971 59.3395Z" fill="#FFDB8D"/>
<path d="M20.0426 11.842C20.0426 11.842 21.6955 11.5322 22.9112 10.284C23.4463 9.73432 23.7426 9.12745 23.9059 8.43164H28.0884C28.2517 9.12745 28.5479 9.73432 29.0832 10.284C30.2987 11.5322 31.9513 11.842 31.9513 11.842H20.0426Z" fill="#3C3C3C"/>
<path d="M20.0424 18.0576H31.9512V13.0376H20.0424V18.0576Z" fill="#6E6E6E"/>
</svg>
