<svg width="34" height="57" viewBox="0 0 34 57" fill="none" xmlns="http://www.w3.org/2000/svg">
<path d="M22.9424 50.725V45.5H27.1937V50.725H29.0304C30.316 50.725 31.3582 52.0191 31.3582 53.6154L31.3154 54.575H1.6683L1.6582 53.6154C1.6582 52.0191 2.70045 50.725 3.98605 50.725H6.41598V45.5H10.6672V50.725H14.8996V45.5H19.1509V50.725H22.9424Z" fill="#C7C7C7"/>
<path d="M1.6582 53.75H31.3582V56.225H1.6582V53.75Z" fill="#E3E3E3"/>
<path d="M0.842985 24.7256L0.83378 24.7257C0.727407 11.6614 16.7256 0.949951 16.7256 0.949951C16.7256 0.949951 32.897 11.4201 33.0036 24.4842L32.9944 24.4843C33.0018 24.6581 33.0063 24.8326 33.0077 25.0078C33.0774 33.5245 25.9323 40.4829 17.0489 40.5495C8.16553 40.616 0.907574 33.766 0.838169 25.2493C0.836736 25.0741 0.838357 24.8995 0.842985 24.7256Z" fill="#0A5FD2"/>
<path d="M8.26318 28.8425L8.25857 28.8425C8.20392 22.5826 16.4081 17.45 16.4081 17.45C16.4081 17.45 24.7013 22.4669 24.7559 28.7268L24.7512 28.7268C24.755 28.8101 24.7573 28.8937 24.758 28.9777C24.7938 33.0585 21.1296 36.3928 16.574 36.4247C12.0183 36.4566 8.2963 33.1742 8.26071 29.0933C8.25998 29.0094 8.26081 28.9258 8.26318 28.8425Z" fill="#9BCCEC"/>
</svg>
