<svg width="45" height="57" viewBox="0 0 45 57" fill="none" xmlns="http://www.w3.org/2000/svg">
<path d="M23.5892 7.54956H21.3785V12.0369H23.5892V7.54956Z" fill="#DCDCDC"/>
<path d="M18.715 6.54761H26.2517C26.7195 6.54758 27.1003 6.92266 27.1058 7.38891V7.74947C27.1058 8.21965 26.7234 8.6008 26.2517 8.6008H18.715C18.2607 8.57925 17.9052 8.20278 17.911 7.74947V7.38891C17.911 6.92427 18.289 6.54761 18.7552 6.54761" fill="#FA4616"/>
<path d="M11.0577 12.5047H33.919V3.49072H11.0577V12.5047ZM29.8592 8.19804C29.8592 9.34858 28.9234 10.2813 27.769 10.2813H17.2077C16.6533 10.2813 16.1217 10.0618 15.7297 9.67111C15.3377 9.28042 15.1175 8.75055 15.1175 8.19804V6.67567C15.1175 5.5235 16.0517 4.58793 17.2077 4.58242H27.769C28.925 4.58793 29.8592 5.5235 29.8592 6.67567V8.19804Z" fill="#DEDEDE"/>
<path d="M13.6455 49.7249H10.5991V55.1535H13.6455V49.7249Z" fill="#A9A9AD"/>
<path d="M23.8004 49.1868H20.754V54.6155H23.8004V49.1868Z" fill="#A9A9AD"/>
<path d="M33.9547 48.9634H30.9083V54.3921H33.9547V48.9634Z" fill="#A9A9AD"/>
<path d="M43.3482 20.6943V43.1933C43.3432 43.5684 43.3131 43.9427 43.2581 44.3137C42.7027 48.896 38.8668 52.3764 34.2502 52.487H11.3299C6.7132 52.3764 2.87731 48.896 2.32189 44.3137C2.26857 43.9423 2.23516 43.5683 2.2218 43.1933V20.6943C2.2252 20.3165 2.24859 19.9392 2.29186 19.5639C2.83516 14.9268 6.73926 11.4144 11.4099 11.3606H34.1801C38.8354 11.4344 42.7169 14.9418 43.2581 19.5639C43.3064 19.9387 43.3298 20.3164 43.3282 20.6943" fill="#E3E3E3"/>
<path d="M44.8712 20.4693C44.8712 21.0225 44.4112 21.4709 43.8439 21.4709H1.72564C1.15829 21.4709 0.698364 21.0225 0.698364 20.4693C0.698364 19.9162 1.15829 19.4678 1.72564 19.4678H43.8439C44.4112 19.4678 44.8712 19.9162 44.8712 20.4693Z" fill="#A9A9AD"/>
<path d="M35.9856 54.2642H8.56799V56.2951H35.9856V54.2642Z" fill="#A9A9AD"/>
<path d="M35.9859 0.444336H9.58374V3.49074H35.9859V0.444336Z" fill="#A9A9AD"/>
<path d="M44.8712 42.8241C44.8712 43.3772 44.4112 43.8256 43.8439 43.8256H1.72564C1.15829 43.8256 0.698364 43.3772 0.698364 42.8241C0.698364 42.2709 1.15829 41.8225 1.72564 41.8225H43.8439C44.4112 41.8225 44.8712 42.2709 44.8712 42.8241Z" fill="#A9A9AD"/>
<path d="M15.8414 32.9284C15.8414 26.9992 21.8708 22.1416 21.8708 22.1416C21.8708 22.1416 28.0408 26.889 28.081 32.8182V33.0586C28.081 36.9146 25.3778 40.0695 21.9913 40.0695C18.6049 40.0695 15.9017 37.0247 15.8414 33.1587V32.9284Z" fill="#0A5FD2"/>
<path d="M18.7153 37.3651C18.7153 34.5006 21.7902 32.147 21.7902 32.147C21.7902 32.147 24.9456 34.4906 24.9456 37.305V37.4252C25.0399 38.594 24.4676 39.7165 23.4648 40.3297C22.4621 40.9429 21.1988 40.9429 20.196 40.3297C19.1933 39.7165 18.621 38.594 18.7153 37.4252V37.3651Z" fill="#9BCCEC"/>
</svg>
