<svg width="40" height="32" viewBox="0 0 40 32" fill="none" xmlns="http://www.w3.org/2000/svg">
<path d="M32 14V18H40V14H32ZM28 27.22C29.92 28.64 32.42 30.52 34.4 32C35.2 30.94 36 29.86 36.8 28.8C34.82 27.32 32.32 25.44 30.4 24C29.6 25.08 28.8 26.16 28 27.22ZM36.8 3.2C36 2.14 35.2 1.06 34.4 0C32.42 1.48 29.92 3.36 28 4.8C28.8 5.86 29.6 6.94 30.4 8C32.32 6.56 34.82 4.7 36.8 3.2ZM4 10C1.8 10 0 11.8 0 14V18C0 20.2 1.8 22 4 22H6V30H10V22H12L22 28V4L12 10H4ZM27 16C27 13.34 25.84 10.94 24 9.3V22.68C25.84 21.06 27 18.66 27 16Z" fill="#FFB432"/>
</svg>
