<svg width="563" height="392" viewBox="0 0 563 392" fill="none" xmlns="http://www.w3.org/2000/svg">
<path fill-rule="evenodd" clip-rule="evenodd" d="M504.535 131.071C507.387 133.348 509.826 136.439 512.069 139.297C524.159 154.574 529.107 175.211 525.578 194.132C522.574 210.24 512.363 222.306 501.502 233.842C500.423 234.987 499.278 236.034 498.14 237.111C497.895 237.343 497.687 237.56 497.494 237.769C497.445 238.871 497.054 239.745 496.018 239.96C494.096 243.863 491.92 247.612 489.507 251.272C482.406 262.047 475.165 273.02 463.593 279.305C468.759 274.37 473.656 268.848 478.189 263.319C478.449 263.002 478.703 262.681 478.953 262.359C478.979 262.325 479.006 262.291 479.033 262.258C480.378 260.512 481.578 258.689 482.662 256.777C482.674 256.756 482.686 256.736 482.698 256.715C482.841 256.463 482.978 256.207 483.116 255.952C483.402 255.424 483.684 254.893 483.954 254.351C484.047 254.167 484.142 253.985 484.241 253.804C485.709 251.111 487.88 248.711 489.501 246.05C489.862 245.435 490.214 244.813 490.555 244.184C490.575 244.147 490.594 244.109 490.614 244.072C491.53 242.376 492.38 240.634 493.186 238.866C493.163 238.282 493.679 237.539 494.038 236.726C494.106 236.563 494.499 235.401 494.841 234.873C495.279 233.862 495.719 232.852 496.153 231.84C496.159 231.855 496.164 231.87 496.169 231.886C496.573 230.898 496.974 229.911 497.374 228.929C497.461 228.713 497.548 228.497 497.636 228.28C497.774 227.932 497.911 227.585 498.048 227.238C499.33 223.995 500.501 220.71 501.598 217.395C501.99 216.212 502.147 214.018 502.868 213.036C502.895 212.999 502.925 212.972 502.954 212.939C504.805 206.177 505.923 199.216 505.604 192.219C505.465 193.209 504.449 195.9 504.309 196.507C503.878 198.366 503.592 200.237 503.295 202.122C502.764 205.499 502.135 208.885 501.233 212.173C499.582 218.186 497.412 223.982 495.05 229.712C495.043 229.754 495.039 229.797 495.03 229.838C494.553 232.141 493.006 234.605 492.063 236.751C490.907 232.238 488.94 227.807 487.545 223.345C486.152 218.897 484.986 214.416 484.172 209.836C483.09 203.749 482.182 197.26 481.935 190.878C481.046 184.057 481.802 177.102 483.114 170.44C484.665 162.556 486.529 154.972 490.512 147.979C492.469 144.543 494.741 141.245 497.337 138.273C497.45 138.143 497.569 137.998 497.691 137.846C498.303 136.469 498.983 135.13 499.75 133.846C500.965 131.809 501.655 128.773 504.535 131.071Z" fill="#008906"/>
<path fill-rule="evenodd" clip-rule="evenodd" d="M382.287 31.098C379.777 32.1254 378.42 34.076 380.879 36.0785C381.616 36.6788 382.463 37.2298 383.245 37.7789C387.592 40.8305 392.021 43.7562 396.314 46.8863C404.571 52.9084 411.879 59.8918 419.176 67.0083C424.92 72.6116 430.419 78.4912 435.192 84.9164C441.073 92.8342 445.654 101.5 449.965 110.292C454.4 119.339 458.584 128.931 461.709 138.587C465.263 149.569 467.525 160.518 469.112 171.916C473.033 200.08 472.405 228.465 467.95 256.469C467.309 260.501 466.651 264.53 465.989 268.558C465.49 271.593 464.839 274.6 464.324 277.629C463.898 280.138 465.983 280.972 466.907 278.555C467.969 275.781 468.158 272.348 468.669 269.44C469.126 266.845 469.579 264.249 470.034 261.654C470.567 258.611 471.083 255.567 471.544 252.513C473.693 238.304 474.964 223.901 475.316 209.521C475.583 198.599 474.747 187.721 473.528 176.853C472.126 164.363 470.557 151.17 466.039 139.244C466.102 139.039 466.146 138.806 466.18 138.559C469.311 139.043 470.301 128.935 470.561 127.045C471.221 122.247 471.483 117.347 471.534 112.501C471.577 108.525 471.234 104.589 470.349 100.695C469.038 94.9251 466.619 89.4762 463.71 84.2979C458.671 75.3271 452.689 66.4708 445.495 58.9908C432.366 45.3395 416.105 34.6096 397.242 30.6396C392.413 29.6232 386.896 29.2108 382.287 31.098Z" fill="#008906"/>
<path fill-rule="evenodd" clip-rule="evenodd" d="M472.388 213.343C467.437 207.259 462.241 202.489 455.259 198.852C449.233 195.712 442.88 193.552 436.386 191.72C427.251 189.142 418.464 188.408 409.232 190.4C403.718 191.59 397.014 194.626 393.843 199.42C390.109 205.066 389.436 212.776 394.937 217.733C398.338 220.798 403.281 222.123 407.639 223.01C412.854 224.071 418.08 224.064 423.293 223.328C431.795 222.127 439.888 218.903 448.226 216.976C452.183 216.062 456.122 215.084 460.162 214.558C462.162 214.297 464.193 214.099 466.197 214.542C467.269 214.779 470.475 216.848 470.787 214.805C483.418 230.751 482.662 254.598 470.113 269.842C468.943 271.263 467.712 272.631 466.494 274.009C465.724 274.88 462.397 277.488 462.475 278.744C462.647 281.515 465.854 277.682 466.341 277.161C467.599 275.814 468.846 274.456 470.082 273.089C476.803 265.654 481.165 256.425 482.008 246.267C482.971 234.652 479.88 222.551 472.388 213.343Z" fill="#A5BB48"/>
<path fill-rule="evenodd" clip-rule="evenodd" d="M194.527 339.207C197.297 331.973 201.273 325.176 205.031 318.429C211.068 307.591 218.002 298.66 228.948 292.737C246.75 283.104 265.965 279.9 285.786 280.995C296.117 281.566 306.672 283.138 316.376 286.821C320.695 288.46 324.899 290.387 329.055 292.404C331.622 293.65 334.145 294.981 336.657 296.336C338.169 297.152 340.877 297.985 341.84 299.497C342.997 301.313 341.794 303.905 339.598 303.966C337.729 304.019 335.482 302.149 333.846 301.308C330.084 299.371 326.232 297.637 322.336 295.993C316.253 293.426 310.147 291.468 303.67 290.259C290.544 287.81 276.669 287.655 263.414 289.388C268.11 300.549 266.604 311.7 260.629 322.107C252.123 336.923 241.476 348.112 226.113 355.534C216.135 360.355 205.883 360.549 195.313 358.178C193.315 357.73 190.589 356.822 189.966 354.529C189.365 352.321 190.976 349.37 191.65 347.293C192.535 344.569 193.502 341.882 194.527 339.207Z" fill="#008906"/>
<path fill-rule="evenodd" clip-rule="evenodd" d="M291.801 200.98C273.908 195.89 256.059 190.966 237.647 188.022C226.797 186.287 215.862 185.328 204.953 184.042C206.278 184.305 207.599 184.601 208.91 184.928C205.597 184.685 201.954 185.574 198.566 185.535C194.788 185.492 190.996 185.136 187.245 184.735C179.926 183.954 172.643 183.056 165.293 182.554C157.104 181.995 148.874 181.862 140.671 181.511C133.709 181.213 126.508 180.644 119.532 181.145C115.73 181.417 111.766 181.426 107.916 181.643C106.627 181.716 92.8104 181.167 92.8248 181.133C93.141 180.386 99.6186 179.837 100.592 179.704C103.437 179.314 106.288 179.168 109.148 179.011C106.55 177.312 104.135 175.345 102.082 172.991C101.448 172.265 96.7151 167.046 97.0895 166.162C97.2766 165.72 106.657 174.529 107.414 175.46C108.029 176.216 108.701 177.429 109.428 178.061C110.602 179.082 110.358 178.709 111.74 178.867C114.274 179.157 117.104 178.616 119.66 178.605C121.03 178.585 125.561 179.027 127.871 178.565C135.356 178.027 143.804 178.977 151.452 179.398C148.413 177.495 145.649 175.265 143.107 172.724C142.503 172.121 136.735 166.912 137.02 166.24C137.34 165.484 146.934 172.984 147.702 173.775C149.129 175.245 150.323 177.109 151.832 178.468C153.489 179.961 155.731 179.532 158.031 179.63C166.491 179.99 174.881 180.72 183.282 181.699C183.11 166.553 167.763 157.024 156.006 151.038C147.531 146.723 138.069 144.295 128.703 142.816C116.204 140.841 103.275 140.967 90.6303 141.556C75.8962 142.243 61.5334 145.697 47.8138 151.394C40.6381 154.373 33.8299 158.346 27.2566 162.527C24.0453 164.569 21.1386 166.834 18.6048 169.735C17.4632 171.044 16.4419 172.45 15.4979 173.91C14.7806 175.019 12.6368 176.993 12.4987 178.107C11.3023 187.173 12.4441 194.858 17.3656 202.532C22.0239 209.798 28.6825 215.91 35.7147 220.726C43.5457 226.088 51.9998 230.175 61.2387 232.364C68.2878 234.035 75.5533 234.834 82.7568 235.604C108.378 238.341 137.84 236.567 159.501 220.105C166.513 214.777 172.177 207.964 176.823 200.473C177.917 198.707 178.997 196.938 179.914 195.071C180.533 193.812 181.474 189.208 182.424 188.511C183.726 187.555 188.351 188.656 190.151 188.764C203.833 189.586 217.46 190.913 231.045 192.637C245.499 194.472 259.76 197.111 273.961 200.298C280.001 201.654 286.021 203.032 292.017 204.576C293.412 204.935 297.449 206.895 299.15 206.105C300.225 205.606 300.41 204.332 299.718 203.468C298.515 201.966 293.633 201.501 291.801 200.98Z" fill="#A5BB48"/>
<path fill-rule="evenodd" clip-rule="evenodd" d="M238.284 116.688C241.85 115.912 245.788 115.971 249.42 116.035C268.9 116.299 288.03 125.485 300.48 140.164C311.079 152.66 313.993 168.197 316.087 183.902C316.295 185.461 316.384 187.011 316.501 188.573C316.526 188.909 316.563 189.208 316.604 189.489C317.427 190.223 317.859 191.077 317.372 192.017C319.186 195.971 320.72 200.025 322.037 204.207C325.912 216.515 329.854 229.058 327.426 242C326.859 234.878 325.665 227.595 324.238 220.589C324.156 220.187 324.067 219.788 323.975 219.39C323.965 219.348 323.957 219.306 323.947 219.265C323.442 217.119 322.785 215.038 321.986 212.99C321.978 212.968 321.97 212.946 321.961 212.923C321.856 212.654 321.744 212.386 321.633 212.118C321.405 211.563 321.17 211.008 320.92 210.457C320.836 210.27 320.755 210.08 320.677 209.889C319.515 207.051 319.024 203.852 317.982 200.915C317.733 200.247 317.472 199.582 317.199 198.92C317.183 198.881 317.167 198.843 317.15 198.804C316.413 197.023 315.598 195.264 314.736 193.523C314.267 193.172 314.017 192.303 313.613 191.512C313.53 191.356 312.877 190.318 312.682 189.719C312.175 188.741 311.669 187.763 311.158 186.787C311.173 186.792 311.189 186.798 311.204 186.804C310.692 185.866 310.179 184.933 309.67 184.003C309.558 183.799 309.445 183.595 309.333 183.39C309.15 183.064 308.967 182.738 308.785 182.413C307.078 179.371 305.269 176.391 303.39 173.447C302.719 172.396 301.117 170.89 300.81 169.71C300.799 169.666 300.796 169.626 300.789 169.584C296.712 163.88 292.019 158.619 286.39 154.45C287.07 155.183 288.516 157.669 288.899 158.161C290.069 159.668 291.339 161.071 292.614 162.491C294.898 165.035 297.127 167.659 299.109 170.434C302.731 175.51 305.857 180.851 308.812 186.3C308.84 186.332 308.87 186.362 308.897 186.395C310.382 188.218 311.317 190.974 312.386 193.059C308.155 191.108 303.478 189.836 299.136 188.103C294.806 186.376 290.595 184.452 286.528 182.193C281.124 179.19 275.518 175.8 270.411 171.964C264.56 168.348 259.642 163.372 255.302 158.15C250.166 151.971 245.46 145.738 242.549 138.236C241.119 134.549 239.994 130.705 239.327 126.816C239.298 126.646 239.261 126.463 239.22 126.272C238.538 124.928 237.928 123.555 237.416 122.15C236.603 119.922 234.684 117.471 238.284 116.688Z" fill="#A5BB48"/>
<path fill-rule="evenodd" clip-rule="evenodd" d="M136.304 206.096C135.517 208.692 136.173 210.975 139.279 210.332C140.21 210.139 141.171 209.83 142.091 209.57C147.202 208.123 152.266 206.534 157.403 205.18C167.286 202.576 177.315 201.315 187.441 200.146C195.413 199.227 203.444 198.672 211.439 199.026C221.293 199.461 230.907 201.377 240.447 203.582C250.264 205.851 260.344 208.66 269.806 212.33C280.568 216.504 290.489 221.66 300.331 227.623C324.652 242.356 346.273 260.758 365.184 281.888C367.906 284.93 370.617 287.982 373.323 291.038C375.362 293.341 377.284 295.744 379.309 298.055C380.986 299.969 382.949 298.878 381.658 296.636C380.175 294.061 377.632 291.748 375.699 289.516C373.974 287.525 372.247 285.535 370.521 283.544C368.497 281.21 366.461 278.889 364.384 276.603C354.718 265.969 344.348 255.892 333.416 246.544C325.113 239.444 316.147 233.227 306.947 227.313C296.375 220.517 285.151 213.408 273.049 209.385C272.93 209.208 272.777 209.026 272.606 208.844C274.958 206.721 267.743 199.573 266.441 198.179C263.135 194.639 259.499 191.343 255.773 188.245C252.716 185.703 249.447 183.484 245.868 181.713C240.564 179.089 234.811 177.526 228.959 176.514C218.82 174.761 208.175 173.811 197.833 174.671C178.958 176.239 160.371 182.081 145.387 194.206C141.551 197.311 137.749 201.33 136.304 206.096Z" fill="#008906"/>
<path fill-rule="evenodd" clip-rule="evenodd" d="M286.207 226C278.363 226 271.384 227.021 264.156 230.141C257.918 232.834 252.232 236.398 246.713 240.28C238.948 245.738 232.832 252.091 228.552 260.509C225.994 265.537 224.118 272.653 225.835 278.138C227.859 284.598 233.414 289.986 240.731 288.848C245.255 288.145 249.402 285.147 252.841 282.326C256.955 278.95 260.248 274.892 262.966 270.384C267.402 263.031 270.008 254.719 273.776 247.036C275.564 243.389 277.292 239.716 279.433 236.251C280.493 234.534 281.622 232.835 283.23 231.559C284.09 230.877 287.718 229.696 286.331 228.164C306.672 228.432 324.692 244.068 328.596 263.423C328.96 265.227 329.244 267.046 329.545 268.861C329.734 270.007 329.658 274.234 330.681 274.966C332.939 276.581 331.99 271.674 331.893 270.968C331.643 269.142 331.375 267.318 331.095 265.497C329.57 255.591 325.165 246.382 317.817 239.318C309.415 231.24 298.079 226 286.207 226Z" fill="#A5BB48"/>
<path fill-rule="evenodd" clip-rule="evenodd" d="M218.24 41.1993C222.755 37.2349 229.209 35.5306 235.117 34.7847C258.191 31.8715 280.959 37.6777 301.303 48.0435C312.45 53.7233 322.756 61.4475 332.032 69.6732C337.387 74.4215 342.289 79.6707 346.055 85.7216C348.596 89.8058 350.534 94.1506 352.05 98.6933C353.898 104.23 355.527 109.91 356.662 115.632C357.109 117.886 359.956 129.782 356.194 130.465C356.254 130.759 356.295 131.042 356.303 131.299C366.147 143.094 373.127 157.493 379.639 171.158C385.305 183.049 390.538 195.102 394.53 207.639C399.785 224.146 404.002 241.042 407.141 258.063C407.816 261.721 408.425 265.389 409.015 269.063C409.517 272.196 410.02 275.329 410.521 278.463C411.082 281.975 412.217 285.956 412.097 289.533C411.994 292.648 409.288 292.52 408.787 289.497C408.182 285.845 407.741 282.166 407.117 278.515C406.288 273.669 405.452 268.823 404.598 263.982C398.662 230.349 388.212 197.792 372.66 167.279C366.367 154.93 359.481 143.358 351.106 132.258C343.744 122.498 335.199 113.228 326.582 104.678C318.206 96.369 309.572 88.3095 299.75 81.614C291.779 76.1808 283.195 71.6547 274.439 67.5403C263.317 62.3147 252.236 57.2451 240.449 53.6439C234.322 51.7723 228.12 50.1871 221.961 48.4265C220.853 48.1097 219.67 47.8161 218.593 47.4232C215.001 46.1128 215.781 43.3577 218.24 41.1993Z" fill="#A5BB48"/>
<path fill-rule="evenodd" clip-rule="evenodd" d="M330.849 292.086C324.957 297.903 320.471 303.845 317.357 311.55C314.668 318.2 313.043 325.096 311.776 332.107C309.993 341.967 310.113 351.278 313.143 360.78C314.953 366.456 318.824 373.196 324.184 376.045C330.498 379.401 338.668 379.331 343.32 373.05C346.197 369.166 347.088 363.837 347.578 359.167C348.164 353.579 347.626 348.087 346.324 342.682C344.2 333.866 339.99 325.685 337.119 317.116C335.756 313.049 334.329 309.007 333.366 304.814C332.889 302.738 332.476 300.623 332.737 298.472C332.878 297.321 334.727 293.744 332.548 293.621C348.027 278.738 373.166 277.129 390.461 288.782C392.072 289.868 393.635 291.024 395.208 292.166C396.201 292.887 399.279 296.121 400.592 295.912C403.486 295.452 399.132 292.468 398.535 292.008C396.993 290.822 395.438 289.648 393.876 288.487C385.381 282.172 375.238 278.518 364.477 278.656C352.171 278.814 339.767 283.283 330.849 292.086Z" fill="#A5BB48"/>
</svg>
