<svg width="72" height="72" viewBox="0 0 72 72" fill="none" xmlns="http://www.w3.org/2000/svg">
<g clip-path="url(#clip0_987_7844)">
<rect width="72" height="72" fill="#0A5FD2"/>
<path fill-rule="evenodd" clip-rule="evenodd" d="M76.6447 39.33C74.4546 39.4647 72.9957 38.1228 71.5859 36.7598C70.9722 36.1666 70.5128 36.1264 69.871 36.6565C68.8452 37.5069 67.7598 37.2409 66.6902 36.709C66.2132 36.4728 65.7257 36.2541 65.112 35.9654C65.6556 34.116 64.4054 33.2727 62.7448 32.6918C62.5326 32.6166 62.3696 32.4031 62.1819 32.2544L62.1539 32.2841C62.7921 31.7925 63.4041 31.2571 64.081 30.8249C64.3966 30.6255 64.8998 30.4487 65.2085 30.5607C67.253 31.2991 69.2695 32.0987 71.2808 32.914C72.2066 33.2902 73.2289 35.2708 72.9221 36.0739C74.153 37.0607 75.3997 38.0615 76.6465 39.0606V39.33H76.6447Z" fill="#00B9D7"/>
<path fill-rule="evenodd" clip-rule="evenodd" d="M-67.6491 -7.06086C-66.867 -7.13434 -66.2042 -7.19033 -65.5449 -7.26207C-65.3713 -7.28307 -65.2012 -7.39679 -65.0329 -7.39154C-61.4101 -7.28131 -57.9873 -8.49384 -54.4558 -8.96799C-54.1051 -9.01523 -53.7439 -8.97499 -53.2178 -8.97499C-53.4844 -8.34511 -53.7106 -7.96194 -53.8035 -7.54902C-54.0122 -6.63919 -54.0648 -6.01456 -53.0267 -5.22896C-51.289 -3.91146 -49.0024 -4.00594 -47.3612 -2.58171C-46.9877 -2.25628 -46.16 -2.45224 -45.4727 -2.405C-45.0922 -3.16261 -44.7187 -3.90796 -44.3013 -4.7443C-41.4116 -2.72519 -37.8801 -3.1906 -34.5028 -2.84592C-33.4595 -2.73919 -32.6774 -3.19235 -32.2075 -4.14592C-31.9918 -4.58683 -31.7288 -5.0085 -31.564 -5.46866C-30.5908 -8.17364 -30.8486 -8.53757 -33.7015 -8.56207C-34.5081 -8.56907 -35.3164 -8.56557 -36.1231 -8.55157C-38.3552 -8.51658 -40.0544 -9.61887 -39.5441 -12.3991C-39.5126 -12.5653 -39.5406 -12.7438 -39.5406 -13.05C-40.6243 -12.8225 -41.6658 -12.602 -43.0423 -12.3134C-42.8494 -11.8322 -42.5882 -11.1831 -42.2603 -10.3712C-42.2655 -10.3677 -42.5058 -10.2487 -42.625 -10.0563C-43.3913 -8.82452 -43.6315 -8.78253 -44.3382 -10.051C-45.015 -11.2723 -45.5446 -12.5775 -46.1478 -13.8426C-46.2407 -14.0385 -46.3284 -14.2852 -46.4914 -14.3937C-48.0065 -15.3893 -49.5267 -16.3743 -51.0698 -17.3279C-51.3854 -17.5239 -51.7957 -17.5711 -52.4112 -17.7636C-51.9501 -14.5057 -48.5167 -14.329 -47.1893 -12.0561C-47.5769 -12.1366 -47.8504 -12.1926 -48.1222 -12.2504C-48.6956 -10.4622 -49.5688 -9.55588 -50.5157 -9.67136C-49.9388 -10.1683 -49.3303 -10.6914 -48.387 -11.5015C-49.8231 -12.5006 -51.0295 -13.3492 -52.2446 -14.1837C-52.6848 -14.4847 -53.1722 -14.7191 -53.5931 -15.0428C-54.298 -15.58 -54.9661 -16.1626 -55.8656 -16.9045C-56.0743 -16.0209 -56.1707 -15.6097 -56.2829 -15.1286C-56.6301 -15.1461 -56.9528 -15.0936 -57.2263 -15.1863C-58.4012 -15.5817 -59.1832 -15.1513 -59.8478 -14.1715C-60.1511 -13.7236 -60.7421 -13.4839 -61.1121 -13.071C-61.5978 -12.5303 -62.0098 -11.9232 -62.4202 -11.323C-62.7673 -10.8121 -62.9795 -10.1823 -63.4004 -9.75184C-65.0732 -8.04417 -67.0915 -8.6688 -68.9677 -9.21994C-69.4113 -9.34942 -69.7533 -10.415 -69.8234 -11.0833C-69.9163 -11.9932 -69.6849 -12.9345 -69.627 -13.8653C-69.5463 -15.244 -68.7731 -15.8652 -67.4194 -15.5572C-66.8986 -15.4365 -66.3743 -15.2703 -65.9026 -15.0306C-64.9469 -14.5424 -64.0264 -14.8329 -63.474 -15.4942C-62.8357 -16.2553 -62.9865 -17.2649 -63.7002 -18.0418C-64.1123 -18.4914 -64.6085 -18.8641 -65.224 -19.4117C-64.4595 -19.4835 -63.8808 -19.5377 -63.0409 -19.6164C-63.6827 -20.0731 -64.1228 -20.3846 -64.7909 -20.8605C-64.2017 -20.9357 -63.8685 -20.9934 -63.5354 -21.0179C-62.1817 -21.1177 -61.0875 -21.5586 -59.9284 -22.4264C-58.7273 -23.324 -57.961 -24.9179 -56.1602 -25.0789C-55.6499 -25.1244 -55.1975 -25.812 -54.7311 -26.1952C-54.6189 -26.1759 -54.4961 -26.1934 -54.454 -26.1427C-53.5387 -25.0159 -52.683 -26.4891 -51.7274 -26.1952C-50.9015 -25.9415 -50.1475 -24.778 -49.0849 -25.8365C-48.8359 -26.0832 -48.3449 -26.1637 -47.9591 -26.1812C-45.634 -26.2914 -45.634 -26.2774 -45.1115 -28.3473C-43.9015 -28.2551 -43.3392 -28.9369 -43.4246 -30.3926C-42.746 -30.4364 -42.0499 -30.3821 -41.4221 -30.5624C-41.1205 -30.6498 -40.9469 -31.1782 -40.7154 -31.5072C-41.0521 -31.6699 -41.38 -31.9533 -41.722 -31.9743C-42.3409 -32.0128 -42.9757 -31.8151 -43.5912 -31.8676C-44.012 -31.9043 -44.5433 -32.0933 -44.78 -32.4012C-44.9606 -32.6392 -44.8291 -33.1903 -44.7099 -33.5613C-44.6064 -33.8885 -44.2593 -34.1369 -44.1435 -34.4641C-44.012 -34.8368 -44.0208 -35.2567 -43.9664 -35.6591C-44.3417 -35.6906 -44.7888 -35.8691 -45.0764 -35.7274C-46.3617 -35.101 -47.9556 -34.7143 -47.9924 -32.8439C-48.0082 -32.1773 -47.8977 -31.5054 -47.8451 -30.837C-47.6891 -30.7811 -47.5365 -30.7268 -47.3822 -30.6708C-48.2344 -29.6823 -48.9954 -28.5957 -49.9669 -27.7436C-50.8243 -26.9895 -51.7256 -27.399 -52.0938 -28.503C-52.5673 -29.9167 -55.6008 -31.208 -56.6827 -30.3279V-33.0924C-55.2571 -33.0871 -54.1402 -33.3268 -53.7386 -34.8928C-53.6001 -35.4317 -52.8163 -35.8271 -52.2955 -36.2453C-51.5608 -36.8366 -50.7559 -37.3423 -50.058 -37.9669C-47.8416 -39.944 -45.3745 -41.0673 -42.3339 -40.4287C-39.3425 -39.8006 -36.351 -39.1689 -33.2894 -38.5268C-33.6156 -37.1393 -34.1188 -36.9224 -35.1253 -37.2093C-35.946 -37.4438 -36.8595 -37.3475 -37.7328 -37.3983C-37.7941 -37.2146 -37.852 -37.0291 -37.9134 -36.8454C-36.956 -36.0405 -36.0266 -35.1955 -35.0131 -34.4676C-34.8377 -34.3434 -34.2082 -34.6006 -33.968 -34.8543C-32.104 -36.8156 -29.5685 -37.5383 -27.2013 -38.5636C-26.8225 -38.728 -26.2947 -38.7508 -25.8949 -38.6301C-24.443 -38.1961 -23.1455 -38.3291 -21.9548 -39.3334C-21.3289 -39.8601 -20.7537 -39.8146 -20.0558 -39.2389C-18.269 -37.7535 -16.0053 -37.6957 -14.7199 -38.9782C-15.5721 -39.9633 -16.8767 -40.6929 -16.7715 -42.2834C-14.2588 -42.5563 -13.0611 -41.5257 -13.0103 -39.1112C-12.991 -38.2346 -12.9507 -37.4123 -11.7197 -37.6117C-10.9008 -37.7447 -10.4993 -38.1122 -10.978 -38.9887C-11.376 -39.7148 -11.7004 -40.4794 -11.8407 -41.3315C-11.5181 -40.8171 -11.2603 -40.2397 -10.85 -39.8093C-10.5361 -39.4821 -10.0276 -39.3422 -9.60676 -39.12C-9.45771 -39.6606 -9.18417 -40.203 -9.18943 -40.7436C-9.19644 -41.2913 -9.4735 -41.8407 -9.68567 -42.5685C-8.11279 -42.8362 -6.68369 -43.1792 -5.23355 -43.2947C-3.75361 -43.4136 -2.45954 -43.7303 -1.311 -44.7749C-0.890167 -45.158 -0.0256805 -45.1563 0.635391 -45.1545C3.20601 -45.1493 5.78013 -45.0881 8.35075 -45.0111C8.72073 -45.0006 9.0837 -44.7871 9.4835 -44.6576C8.93991 -43.9665 8.46471 -43.3576 8.01231 -42.7803C8.16487 -42.579 8.21747 -42.4496 8.27007 -42.4496C10.6811 -42.4881 13.0413 -42.1941 15.3875 -41.6167C15.9416 -41.4803 16.6272 -41.7322 17.2216 -41.9072C19.0558 -42.4443 20.8058 -42.3883 22.5365 -41.4838C23.1099 -41.1828 23.82 -41.1111 24.4776 -41.0148C25.805 -40.8154 27.1411 -40.6947 28.465 -40.4969C30.1045 -40.2502 31.0655 -41.1356 31.8142 -42.4268C34.0727 -41.384 36.34 -40.6299 38.9001 -40.7419C40.9113 -40.8259 42.905 -40.8486 44.9601 -40.1225C46.9258 -39.4296 49.2036 -39.6326 51.3358 -39.3807C52.1757 -39.2809 52.9946 -39.0132 53.9134 -38.7998C54.3939 -40.1103 55.3916 -39.9895 56.5209 -39.7218C59.0827 -39.1165 61.6516 -38.5163 64.2433 -38.0492C65.4567 -37.8287 66.7578 -38.0789 67.9571 -37.82C69.0601 -37.5803 70.0754 -36.9416 71.0538 -36.2435C68.7813 -35.8568 66.5018 -38.2994 64.2853 -35.7956C65.511 -35.0905 66.7244 -34.3941 67.9379 -33.696C66.0108 -33.752 65.262 -32.1318 63.9855 -30.9805V-32.6689C62.9527 -32.1196 62.0444 -31.7574 61.2728 -31.201C60.4014 -30.5693 60.6188 -29.6403 61.627 -29.2938C62.9211 -28.8494 63.6962 -27.7594 63.6436 -26.3579C63.6225 -25.784 63.4472 -25.2154 63.4033 -24.638C63.3595 -24.0781 63.3928 -23.5095 63.3928 -22.9443C63.2385 -22.8621 63.0859 -22.7763 62.9334 -22.6941C62.0321 -23.8331 61.1343 -24.9757 60.2225 -26.1025C60.0103 -26.3649 59.7789 -26.6606 59.486 -26.8023C57.8518 -27.5879 57.5029 -29.5563 58.5023 -30.8703C58.8741 -31.3549 58.462 -32.4747 58.2884 -33.2796C58.2673 -33.3811 57.3135 -33.5105 57.1416 -33.3163C56.2754 -32.3418 55.5302 -32.5902 54.8183 -33.3723C52.9666 -32.9891 53.7819 -31.0225 52.8754 -30.1949C50.9939 -30.5274 49.1913 -30.8038 47.408 -31.1695C45.6896 -31.5212 44.7041 -30.2737 43.9974 -29.2501C43.4328 -28.433 43.5293 -27.035 43.6713 -25.938C43.7134 -25.623 44.9075 -25.3641 45.6019 -25.2486C46.2033 -25.1471 46.8486 -25.3274 47.4729 -25.3134C48.7547 -25.2889 49.819 -24.8952 50.41 -23.6092C50.6064 -23.1823 51.0693 -22.8866 51.3604 -22.4946C51.5848 -22.1902 51.932 -21.7895 51.8776 -21.4921C51.5234 -19.522 52.2915 -17.3104 50.3381 -15.5047C50.1557 -15.5047 49.663 -15.5275 49.1755 -15.4995C48.4443 -15.4575 47.8428 -15.2825 47.9025 -14.3272C47.92 -14.0508 47.7499 -13.7341 47.5974 -13.4769C46.6312 -11.8724 46.6803 -11.6012 48.2023 -10.5479C48.6459 -10.2417 49.1054 -9.95655 49.5455 -9.65211C50.929 -8.68979 51.0167 -8.36961 49.8927 -7.16409C49.528 -6.77391 48.8441 -6.52546 48.3058 -6.52546C48.0813 -6.52546 47.8358 -7.3373 47.6447 -7.79922C47.5641 -7.99518 47.6938 -8.35386 47.5763 -8.44659C46.3629 -9.40016 45.3371 -10.5059 44.4393 -11.7622C44.3517 -11.8847 43.3452 -11.3545 42.6683 -11.0903C42.3772 -11.7692 42.0633 -12.4953 41.6951 -13.3579C39.8136 -12.6423 39.2718 -10.8751 38.0338 -9.20245H42.6701C42.5491 -8.80003 42.5526 -8.43084 42.3685 -8.26987C41.1656 -7.19908 41.8547 -6.33125 42.5877 -5.41793C43.6608 -4.07943 45.1144 -3.05413 45.5072 -1.17849C45.9368 0.866871 44.634 4.09325 42.6087 4.54991C40.3046 5.07306 39.0912 6.48504 38.1916 8.43242C37.99 8.86983 37.6954 9.26176 37.1325 9.64668C37.1325 9.15328 37.0834 8.65462 37.1413 8.16996C37.2816 7.00994 36.6468 6.45705 35.6648 6.08786C34.6671 5.71519 34.4146 6.56028 34.0148 7.07993C32.6296 8.89258 32.7699 8.78585 34.3252 10.385C35.5509 11.6465 36.482 13.2178 37.4166 14.7295C37.6253 15.0654 37.4674 15.8702 37.1834 16.2237C36.3768 17.2262 35.4808 18.1815 34.4778 18.9794C34.2182 19.1876 33.2678 18.9164 32.9364 18.5752C31.7949 17.4082 30.7884 16.1117 29.6399 14.7592C27.8022 15.8842 29.1629 17.9348 28.0459 19.3363C27.9758 18.4527 27.9355 17.5692 27.825 16.6891C27.697 15.6393 27.6339 14.558 27.3217 13.5572C26.7939 11.853 26.6484 11.846 25.1369 12.6981C25.065 12.6544 24.9352 12.6141 24.9282 12.5599C24.7704 11.2984 24.3496 10.2556 23.1116 9.59069C22.675 9.35624 22.4313 8.66862 22.2086 8.14197C21.4563 6.35206 19.9168 5.80442 18.2001 5.72569C17.6811 5.70119 17.0919 6.22959 16.6132 6.60227C15.2139 7.69231 13.7462 8.72636 12.5048 9.97912C11.2335 11.2616 10.4058 12.8591 10.5531 14.7854C10.6127 15.5868 10.6215 16.3934 10.7057 17.1912C10.846 18.563 9.84997 19.1281 8.88731 19.5463C7.87905 19.9837 7.74579 18.9496 7.50906 18.3513C6.81994 16.6121 6.23778 14.8309 5.55216 13.0935C4.90688 11.4576 3.75309 9.99311 4.29141 8.01775C4.41942 7.54884 3.87933 6.89971 3.64963 6.33632C1.7015 7.2374 1.75938 7.18491 0.307487 5.66795C-1.57576 3.70132 -3.60106 2.13187 -6.67668 2.5168C-8.49856 2.74601 -10.4818 2.68652 -11.8056 0.889614C-11.9652 0.667408 -12.4527 0.64991 -12.7999 0.60442C-15.9316 0.203747 -17.2643 -0.471622 -19.5526 -2.6762C-19.4947 -2.08131 -19.5333 -1.45669 -19.3632 -0.896793C-19.0423 0.168751 -18.6583 1.2238 -18.1989 2.23861C-17.0661 4.74762 -15.4652 4.58841 -13.5819 3.05045C-13.1418 2.69177 -12.8174 2.19136 -12.3194 1.61397C-11.9056 3.43538 -10.9447 4.6339 -9.47701 5.48773C-9.28061 5.60146 -9.21223 6.41155 -9.39985 6.64076C-11.611 9.309 -13.5556 12.2729 -17.2748 13.216C-18.5408 13.5379 -19.6508 14.4285 -20.8905 14.9114C-22.0355 15.3576 -23.0157 14.9359 -23.2559 13.6884C-23.7469 11.1287 -25.1707 9.12528 -26.7471 7.14816C-27.4292 6.28908 -27.7659 5.16229 -28.3375 4.20698C-29.1845 2.795 -29.9788 1.32003 -31.0414 0.0847664C-31.5482 -0.50312 -32.6283 -0.601101 -33.5647 -0.966778C-32.3916 1.66996 -31.2501 4.16674 -30.1699 6.68625C-29.2459 8.83834 -28.0412 10.7542 -26.435 12.5091C-25.3601 13.6849 -24.7113 15.2911 -24.045 16.7818C-23.7294 17.4852 -23.4751 17.7301 -22.6966 17.6461C-20.6169 17.4187 -18.5285 17.291 -16.0438 17.0898C-16.6032 18.5087 -16.8785 20.0204 -17.6974 21.1297C-20.2697 24.6133 -23.0034 27.9779 -25.7652 31.318C-27.0137 32.828 -27.7291 34.212 -26.954 36.2906C-26.3298 37.9702 -26.2211 39.8599 -26.0229 41.6725C-25.8756 43.032 -26.3701 44.1343 -27.6011 44.9794C-28.6532 45.7003 -29.6176 46.6293 -30.4154 47.6284C-31.1151 48.5067 -31.6376 49.5128 -31.0362 50.8215C-30.7048 51.5424 -30.8065 52.391 -31.713 53.1171C-32.6389 53.8642 -33.1561 55.0995 -33.9172 56.0705C-34.7536 57.1413 -35.611 58.2086 -36.5579 59.1814C-37.9484 60.6092 -39.3127 62.1086 -41.4467 62.4813C-42.5654 62.6773 -43.6666 63.1304 -44.773 63.1182C-45.2447 63.1147 -46.0268 62.2783 -46.1197 61.7272C-46.4564 59.7186 -47.2332 58.0214 -48.5781 56.4712C-49.0621 55.9113 -49.148 54.8738 -49.155 54.0532C-49.1848 51.4374 -50.2527 49.1769 -51.5468 47.037C-52.4112 45.6058 -52.3534 44.234 -51.5362 43.011C-49.7003 40.2553 -50.3754 37.5853 -51.4065 34.8243C-52.0886 32.9995 -52.8917 31.311 -54.3559 29.941C-54.6382 29.6768 -54.3453 28.8108 -54.3278 28.2194C-54.3015 27.1748 -54.0507 26.0568 -54.3418 25.1067C-54.5417 24.4558 -55.5359 23.5758 -56.1199 23.6143C-57.2491 23.6895 -57.6156 23.0474 -58.2626 22.4542C-59.4778 21.3397 -60.9928 21.6004 -62.4587 21.9083C-63.9773 22.225 -65.4958 22.5417 -67.0143 22.8602C-67.0581 22.8689 -67.1125 22.8619 -67.1476 22.8829C-68.4837 23.728 -70.0198 24.0972 -71.3068 23.1908C-72.771 22.162 -74.0002 20.771 -75.2364 19.4501C-76.1956 18.4265 -77.2372 17.3732 -77.8193 16.1344C-78.3173 15.0741 -78.5575 13.6482 -78.284 12.5371C-77.8965 10.9572 -77.4633 9.50321 -77.8509 7.83753C-78.2945 5.9304 -77.1653 4.33295 -76.1833 2.91048C-75.1259 1.38827 -73.6144 0.186253 -72.3677 -1.21523C-71.9679 -1.66664 -71.782 -2.30877 -71.4945 -2.86166C-71.1508 -3.51429 -70.9281 -4.28939 -70.4266 -4.78979C-69.5288 -5.68913 -68.4609 -6.42223 -67.6613 -7.06786L-67.6491 -7.06086Z" fill="#00B9D7"/>
<path fill-rule="evenodd" clip-rule="evenodd" d="M70.5979 47.1232C71.0713 47.9176 71.543 48.7119 72.0217 49.5028C72.3847 50.1081 72.6985 50.7625 73.1474 51.2979C73.4858 51.7003 74.3328 51.9068 74.3854 52.2777C74.5713 53.6232 74.7624 55.0475 74.5116 56.3562C73.9593 59.2187 72.1374 61.306 69.9718 63.2219C68.2517 64.7406 66.6876 66.4028 64.4343 67.1079C63.9644 67.2549 63.4085 67.1376 62.893 67.1167C62.3652 67.0957 61.8023 66.8979 61.3236 67.0274C60.2154 67.3319 59.6315 66.7405 59.4632 65.8779C59.1896 64.4921 59.1423 63.0627 58.9968 61.5982C58.3199 61.9131 57.3695 62.3558 56.733 62.6533C56.0947 61.8467 55.595 61.2955 55.1899 60.6814C54.6271 59.8293 53.8801 60.16 53.084 60.1215C50.58 59.999 48.5126 61.3008 46.2366 61.9061C44.178 62.452 42.0633 62.8072 39.9661 63.2096C39.7575 63.2481 39.5032 63.0399 39.6067 63.0837C39.7277 61.5877 39.8451 60.279 39.9328 58.9702C40.0994 56.5312 40.017 54.0431 40.522 51.6758C40.7043 50.822 42.2246 50.1781 43.2276 49.5972C43.8659 49.2281 44.7093 49.2298 45.3984 48.9306C47.0993 48.1835 49.0562 47.7006 49.3578 45.3018C49.7909 45.5293 50.0715 45.678 50.2188 45.755C50.971 44.7769 51.6005 43.8356 52.3563 43.008C52.9577 42.3519 53.5942 42.2696 54.2115 43.1777C54.5254 43.6431 55.1619 43.8986 55.7177 44.2975C56.4682 41.862 58.7425 39.7274 62.1653 40.9259C62.1934 40.9994 62.2688 41.0956 62.246 41.1516C61.2728 43.5224 61.7199 44.7612 64.0924 45.7865C65.034 46.1941 66.0142 45.9667 66.4789 44.9414C67.1347 43.4892 67.6713 41.9827 68.2727 40.4692C69.2442 42.5513 70.8679 44.5145 70.2033 47.1949C70.3348 47.1739 70.4663 47.1512 70.5996 47.1285L70.5979 47.1232Z" fill="#00B9D7"/>
<path fill-rule="evenodd" clip-rule="evenodd" d="M38.5361 27.1768C38.9955 27.2328 39.4234 27.2853 39.9477 27.3501C40.3405 26.512 40.7157 25.6704 41.1313 24.8515C41.2663 24.5891 41.468 24.2881 41.717 24.1674C42.3061 23.8787 43.0128 23.7895 43.5371 23.4273C44.0719 23.0616 44.4454 22.4633 44.8803 21.9751C46.5741 22.6575 46.7705 23.1404 46.1147 24.8025C45.9745 25.1612 45.7675 25.6669 45.9113 25.9381C46.8302 27.658 45.8254 28.7883 44.8189 29.9588C44.6593 30.1443 44.6663 30.4907 44.491 30.6464C44.0859 31.0086 43.6581 31.432 43.1636 31.5825C42.7357 31.7137 42.1974 31.5177 41.7152 31.4338C40.9682 31.3008 39.9565 31.39 39.5409 30.9404C38.6378 29.964 38.1328 28.6815 38.5361 27.1803V27.1768Z" fill="#00B9D7"/>
<path fill-rule="evenodd" clip-rule="evenodd" d="M26.5681 23.2749C27.01 23.6441 27.4431 24.0238 27.8955 24.3807C28.7775 25.0788 29.67 25.7612 30.5591 26.4488C30.801 26.636 31.1184 26.769 31.278 27.0069C32.4546 28.7391 33.6855 30.445 34.6973 32.2699C34.9533 32.7371 34.4886 33.6049 34.3571 34.289C33.8065 34.0511 33.0543 33.9636 32.7474 33.5507C31.4534 31.787 30.2873 29.9306 29.0896 28.0987C28.1199 26.6185 27.1713 25.1243 26.2157 23.6353C26.3314 23.5164 26.4489 23.3939 26.5646 23.2749H26.5681Z" fill="#00B9D7"/>
<path fill-rule="evenodd" clip-rule="evenodd" d="M62.1795 32.2523C61.8288 32.2558 61.4781 32.2908 61.1291 32.2576C60.1051 32.1631 59.4282 31.8377 60.2699 30.6881C59.7597 30.249 59.295 29.8536 58.6777 29.3269C59.3879 29.2132 59.8929 29.1309 60.1717 29.0854C60.8836 30.242 61.5149 31.2638 62.1514 32.2838C62.1514 32.2803 62.1795 32.2506 62.1795 32.2506V32.2523Z" fill="#00B9D7"/>
</g>
<defs>
<clipPath id="clip0_987_7844">
<rect width="72" height="72" rx="36" fill="white"/>
</clipPath>
</defs>
</svg>
