<svg width="473" height="409" viewBox="0 0 473 409" fill="none" xmlns="http://www.w3.org/2000/svg">
<path fill-rule="evenodd" clip-rule="evenodd" d="M381.002 79.7735C383.854 82.0499 386.293 85.1415 388.536 87.9995C400.626 103.277 405.574 123.913 402.045 142.834C399.042 158.942 388.83 171.008 377.969 182.544C376.891 183.69 375.745 184.736 374.607 185.814C374.363 186.045 374.154 186.263 373.961 186.471C373.912 187.573 373.522 188.448 372.485 188.662C370.563 192.565 368.387 196.314 365.974 199.975C358.873 210.749 351.632 221.723 340.06 228.008C345.226 223.072 350.123 217.55 354.656 212.021C354.916 211.704 355.17 211.383 355.42 211.061C355.446 211.027 355.473 210.994 355.5 210.96C356.845 209.214 358.045 207.391 359.13 205.479C359.142 205.458 359.154 205.438 359.165 205.417C359.308 205.165 359.445 204.909 359.583 204.654C359.869 204.127 360.151 203.595 360.421 203.054C360.514 202.87 360.61 202.687 360.709 202.506C362.177 199.813 364.348 197.413 365.968 194.752C366.329 194.137 366.681 193.515 367.022 192.886C367.042 192.849 367.061 192.812 367.081 192.774C367.997 191.078 368.847 189.336 369.654 187.569C369.63 186.984 370.147 186.241 370.505 185.429C370.573 185.265 370.967 184.103 371.308 183.575C371.746 182.564 372.186 181.554 372.621 180.542C372.626 180.557 372.631 180.573 372.636 180.588C373.041 179.6 373.441 178.613 373.841 177.631C373.928 177.415 374.016 177.199 374.103 176.982C374.241 176.634 374.378 176.287 374.515 175.94C375.798 172.697 376.968 169.413 378.065 166.097C378.457 164.914 378.614 162.721 379.335 161.738C379.362 161.701 379.392 161.674 379.421 161.642C381.272 154.879 382.39 147.918 382.071 140.921C381.932 141.911 380.917 144.602 380.776 145.209C380.346 147.068 380.059 148.939 379.763 150.824C379.231 154.201 378.602 157.587 377.7 160.875C376.05 166.888 373.879 172.684 371.517 178.414C371.51 178.456 371.506 178.499 371.498 178.541C371.021 180.843 369.473 183.307 368.53 185.453C367.374 180.94 365.408 176.509 364.012 172.048C362.619 167.599 361.453 163.118 360.639 158.538C359.557 152.451 358.649 145.963 358.402 139.58C357.513 132.76 358.27 125.804 359.581 119.142C361.132 111.259 362.997 103.674 366.979 96.6814C368.936 93.2455 371.208 89.9469 373.804 86.9751C373.917 86.8454 374.036 86.7005 374.159 86.5485C374.77 85.1716 375.45 83.8317 376.217 82.5479C377.432 80.511 378.122 77.4748 381.002 79.7735Z" fill="#008906"/>
<path fill-rule="evenodd" clip-rule="evenodd" d="M247.287 57.0985C244.777 58.1259 243.42 60.0765 245.879 62.079C246.616 62.6793 247.463 63.2303 248.245 63.7793C252.592 66.831 257.021 69.7567 261.314 72.8868C269.571 78.9089 276.879 85.8923 284.176 93.0088C289.92 98.6121 295.419 104.492 300.192 110.917C306.073 118.835 310.654 127.501 314.965 136.293C319.4 145.34 323.584 154.931 326.709 164.587C330.263 175.57 332.525 186.519 334.112 197.916C338.033 226.081 337.405 254.465 332.95 282.47C332.309 286.501 331.651 290.53 330.989 294.558C330.49 297.593 329.839 300.6 329.324 303.63C328.898 306.139 330.983 306.973 331.907 304.556C332.969 301.781 333.158 298.349 333.669 295.441C334.126 292.846 334.579 290.25 335.034 287.655C335.567 284.612 336.083 281.568 336.544 278.514C338.693 264.305 339.964 249.901 340.316 235.522C340.583 224.599 339.747 213.722 338.528 202.853C337.126 190.363 335.557 177.17 331.039 165.244C331.102 165.04 331.146 164.807 331.18 164.56C334.311 165.044 335.301 154.935 335.561 153.046C336.221 148.247 336.483 143.347 336.534 138.501C336.577 134.525 336.234 130.59 335.349 126.695C334.038 120.926 331.619 115.477 328.71 110.298C323.671 101.328 317.689 92.4713 310.495 84.9912C297.366 71.34 281.105 60.6101 262.242 56.6401C257.413 55.6237 251.896 55.2113 247.287 57.0985Z" fill="#008906"/>
<path fill-rule="evenodd" clip-rule="evenodd" d="M339.388 239.343C334.438 233.259 329.241 228.489 322.26 224.852C316.234 221.712 309.88 219.552 303.386 217.72C294.252 215.142 285.464 214.408 276.233 216.4C270.718 217.59 264.014 220.626 260.844 225.42C257.11 231.066 256.437 238.776 261.937 243.733C265.338 246.798 270.281 248.123 274.64 249.01C279.854 250.071 285.081 250.064 290.293 249.328C298.796 248.127 306.888 244.903 315.226 242.976C319.183 242.062 323.122 241.084 327.162 240.558C329.162 240.297 331.193 240.099 333.197 240.542C334.269 240.779 337.475 242.848 337.788 240.805C350.418 256.751 349.662 280.598 337.113 295.842C335.944 297.263 334.712 298.631 333.494 300.009C332.724 300.88 329.398 303.488 329.476 304.744C329.648 307.515 332.855 303.682 333.342 303.161C334.6 301.814 335.846 300.456 337.082 299.089C343.803 291.654 348.166 282.425 349.008 272.267C349.971 260.652 346.881 248.551 339.388 239.343Z" fill="#A5BB48"/>
<path fill-rule="evenodd" clip-rule="evenodd" d="M58.5267 366.206C61.2968 358.972 65.2731 352.175 69.0313 345.428C75.0677 334.59 82.002 325.659 92.9484 319.736C110.75 310.103 129.965 306.899 149.786 307.994C160.117 308.565 170.672 310.137 180.377 313.82C184.695 315.459 188.899 317.386 193.055 319.403C195.622 320.649 198.145 321.98 200.657 323.335C202.169 324.151 204.877 324.984 205.84 326.496C206.997 328.312 205.794 330.904 203.598 330.965C201.729 331.018 199.482 329.148 197.847 328.307C194.084 326.37 190.232 324.636 186.336 322.992C180.253 320.425 174.147 318.467 167.67 317.258C154.545 314.809 140.67 314.654 127.414 316.387C132.11 327.548 130.604 338.699 124.629 349.106C116.123 363.922 105.476 375.111 90.1129 382.533C80.1353 387.354 69.8832 387.548 59.3134 385.177C57.3147 384.729 54.5887 383.821 53.9656 381.528C53.3655 379.32 54.976 376.369 55.65 374.293C56.5349 371.568 57.5026 368.881 58.5267 366.206Z" fill="#008906"/>
<path fill-rule="evenodd" clip-rule="evenodd" d="M102.284 143.688C105.85 142.912 109.788 142.971 113.42 143.035C132.901 143.299 152.03 152.485 164.48 167.164C175.079 179.66 177.993 195.197 180.087 210.902C180.295 212.461 180.384 214.011 180.501 215.573C180.526 215.909 180.564 216.208 180.604 216.489C181.427 217.223 181.859 218.077 181.372 219.017C183.186 222.971 184.72 227.025 186.037 231.207C189.912 243.515 193.854 256.058 191.426 269C190.859 261.878 189.665 254.595 188.238 247.589C188.156 247.187 188.067 246.788 187.975 246.39C187.966 246.348 187.957 246.306 187.947 246.265C187.442 244.119 186.785 242.038 185.987 239.99C185.978 239.968 185.97 239.946 185.961 239.923C185.856 239.654 185.744 239.386 185.633 239.118C185.405 238.563 185.17 238.008 184.921 237.457C184.836 237.27 184.755 237.08 184.678 236.889C183.515 234.051 183.024 230.852 181.982 227.915C181.733 227.247 181.472 226.582 181.199 225.92C181.183 225.881 181.167 225.843 181.151 225.804C180.413 224.023 179.598 222.264 178.736 220.523C178.268 220.172 178.017 219.303 177.613 218.512C177.53 218.356 176.877 217.318 176.682 216.719C176.175 215.741 175.669 214.763 175.158 213.787C175.173 213.792 175.189 213.798 175.204 213.804C174.692 212.866 174.18 211.933 173.671 211.003C173.559 210.799 173.445 210.595 173.333 210.39C173.15 210.064 172.967 209.738 172.785 209.413C171.078 206.371 169.269 203.391 167.39 200.447C166.72 199.396 165.117 197.89 164.81 196.71C164.799 196.666 164.796 196.626 164.789 196.584C160.712 190.88 156.019 185.619 150.39 181.45C151.07 182.183 152.516 184.669 152.899 185.161C154.069 186.668 155.339 188.071 156.614 189.491C158.898 192.035 161.128 194.659 163.109 197.434C166.732 202.51 169.857 207.851 172.812 213.3C172.84 213.332 172.87 213.362 172.897 213.395C174.382 215.218 175.317 217.974 176.386 220.059C172.155 218.108 167.478 216.836 163.136 215.103C158.806 213.376 154.595 211.452 150.528 209.193C145.124 206.19 139.518 202.8 134.411 198.964C128.56 195.348 123.642 190.372 119.302 185.15C114.166 178.971 109.46 172.738 106.549 165.236C105.119 161.549 103.994 157.705 103.327 153.816C103.298 153.646 103.261 153.463 103.22 153.272C102.538 151.928 101.928 150.555 101.416 149.15C100.603 146.922 98.6836 144.471 102.284 143.688Z" fill="#A5BB48"/>
<path fill-rule="evenodd" clip-rule="evenodd" d="M0.303909 233.096C-0.483139 235.692 0.173431 237.975 3.27875 237.332C4.20967 237.139 5.17134 236.83 6.09091 236.57C11.2019 235.123 16.2664 233.534 21.4034 232.18C31.2863 229.576 41.3153 228.315 51.4406 227.146C59.4127 226.227 67.4437 225.672 75.4396 226.026C85.2929 226.461 94.9067 228.377 104.447 230.582C114.264 232.851 124.344 235.66 133.806 239.33C144.569 243.504 154.489 248.66 164.331 254.623C188.652 269.356 210.273 287.758 229.184 308.888C231.906 311.93 234.617 314.982 237.323 318.038C239.362 320.341 241.284 322.744 243.309 325.055C244.986 326.969 246.949 325.878 245.658 323.636C244.175 321.061 241.632 318.748 239.699 316.516C237.974 314.525 236.247 312.535 234.521 310.544C232.497 308.21 230.461 305.889 228.384 303.603C218.718 292.969 208.348 282.892 197.416 273.544C189.113 266.444 180.147 260.227 170.947 254.313C160.375 247.517 149.151 240.408 137.049 236.385C136.93 236.208 136.777 236.026 136.606 235.844C138.958 233.721 131.743 226.573 130.441 225.179C127.135 221.639 123.499 218.343 119.773 215.245C116.716 212.703 113.447 210.484 109.868 208.713C104.564 206.089 98.8112 204.526 92.9588 203.514C82.82 201.761 72.1752 200.811 61.8327 201.671C42.9577 203.239 24.3715 209.081 9.38748 221.206C5.55115 224.311 1.74936 228.33 0.303909 233.096Z" fill="#008906"/>
<path fill-rule="evenodd" clip-rule="evenodd" d="M150.207 253C142.363 253 135.383 254.02 128.156 257.14C121.918 259.833 116.232 263.398 110.712 267.279C102.948 272.738 96.8323 279.091 92.5514 287.508C89.9939 292.537 88.1178 299.653 89.8354 305.138C91.8586 311.598 97.4139 316.986 104.73 315.847C109.255 315.144 113.402 312.146 116.841 309.325C120.954 305.95 124.247 301.891 126.966 297.384C131.402 290.031 134.008 281.718 137.776 274.035C139.564 270.389 141.291 266.716 143.433 263.25C144.493 261.534 145.621 259.834 147.23 258.559C148.09 257.877 151.718 256.696 150.331 255.164C170.671 255.431 188.691 271.068 192.596 290.423C192.96 292.227 193.244 294.045 193.544 295.861C193.734 297.007 193.657 301.233 194.681 301.965C196.939 303.581 195.99 298.674 195.893 297.968C195.642 296.142 195.375 294.317 195.095 292.496C193.57 282.591 189.164 273.382 181.817 266.317C173.415 258.239 162.078 253 150.207 253Z" fill="#A5BB48"/>
</svg>
